<svg xmlns="http://www.w3.org/2000/svg" width="1600" height="1000" viewBox="0 0 1600 1000" fill="none">
  <defs>
    <linearGradient id="bg" x1="0" y1="0" x2="1" y2="1">
      <stop offset="0" stop-color="#ecfff4"/>
      <stop offset="1" stop-color="#d2f5e6"/>
    </linearGradient>
    <radialGradient id="bowl" cx="0" cy="0" r="1" gradientUnits="userSpaceOnUse" gradientTransform="translate(1080 450) rotate(90) scale(260 360)">
      <stop offset="0" stop-color="#8be2bc"/>
      <stop offset="1" stop-color="#10b981" stop-opacity="0.2"/>
    </radialGradient>
  </defs>
  <rect width="1600" height="1000" fill="url(#bg)"/>
  <circle cx="1320" cy="230" r="180" fill="#9de7c8" fill-opacity="0.35"/>
  <circle cx="330" cy="780" r="220" fill="#7ddbb4" fill-opacity="0.25"/>
  <ellipse cx="1030" cy="540" rx="330" ry="210" fill="url(#bowl)"/>
  <path d="M810 570C860 500 930 510 980 570" stroke="#079669" stroke-width="22" stroke-linecap="round"/>
  <path d="M940 470C960 430 1015 418 1048 460" stroke="#18b67f" stroke-width="18" stroke-linecap="round"/>
  <path d="M1040 462C1072 418 1135 414 1172 454" stroke="#29c589" stroke-width="18" stroke-linecap="round"/>
  <path d="M905 512C936 470 998 468 1030 506" stroke="#3ad39a" stroke-width="16" stroke-linecap="round"/>
  <circle cx="660" cy="250" r="46" fill="#34d399" fill-opacity="0.45"/>
  <circle cx="735" cy="300" r="36" fill="#22c58a" fill-opacity="0.4"/>
  <circle cx="1410" cy="510" r="52" fill="#10b981" fill-opacity="0.28"/>
  <path d="M280 300C250 350 270 430 335 450C405 472 470 422 475 350" stroke="#16a474" stroke-opacity="0.35" stroke-width="20" fill="none"/>
  <path d="M1180 780C1250 742 1330 748 1390 800" stroke="#13aa78" stroke-opacity="0.35" stroke-width="22" fill="none"/>
</svg>
